<svg height="512" viewBox="0 0 512 512" width="512" xmlns="http://www.w3.org/2000/svg"><circle cx="280" cy="304" fill="#aedee2" r="192"/><circle cx="280" cy="304" fill="#b8eaee" r="176"/><path d="m168 80h-40a8 8 0 0 1 0-16h40a8 8 0 0 1 0 16z" fill="#d9d9d9"/><path d="m160 112h-32a8 8 0 0 1 0-16h32a8 8 0 0 1 0 16z" fill="#d9d9d9"/><path d="m128 230.474v-182.474a24 24 0 0 0 -48 0v182.474a48 48 0 1 0 48 0z" fill="#ebebeb"/><path d="m112 249.47v-185.47h-16v185.47a24 24 0 1 0 16 0z" fill="#dc4d41"/><circle cx="280.201" cy="264.199" fill="#fbb540" r="56"/><path d="m365.41 336.545a47.781 47.781 0 0 0 -50.722-32.235 55.967 55.967 0 0 0 -106.688 23.69v8.806a40 40 0 0 0 8 79.194h144a39.905 39.905 0 0 0 5.41-79.455z" fill="#f9f9f9"/><g fill="#fbb540"><path d="m272 168h16v24h-16z"/><path d="m206.946 194.947h15.998v23.997h-15.998z" transform="matrix(.707 -.707 .707 .707 -83.376 212.602)"/><path d="m176 264h24v16h-24z"/><path d="m360 264h24v16h-24z"/><path d="m333.056 198.946h23.997v15.998h-23.997z" transform="matrix(.707 -.707 .707 .707 -45.268 304.603)"/></g><path d="m216 376h56v16h-56z" fill="#eee"/><path d="m288 376h16v16h-16z" fill="#eee"/></svg>